<?xml version="1.0" encoding="UTF-8"?>
<svg width="76px" height="64px" viewBox="0 0 76 64" version="1.1" xmlns="http://www.w3.org/2000/svg" xmlns:xlink="http://www.w3.org/1999/xlink">
    <g id="Page-1" stroke="none" stroke-width="1" fill="none" fill-rule="evenodd">
        <g id="Group" transform="translate(0.000000, -0.362180)" fill="#6F9940" fill-rule="nonzero">
            <path d="M10.999999,64.3622 C4.940599,64.3622 -1e-06,59.4215 -1e-06,53.3622 L-1e-06,21.36219 C-1e-06,15.30282 4.940599,10.36219 10.999999,10.36219 L21.781199,10.36219 L26.218799,1.48719 C26.5509375,0.804562479 27.2408859,0.368793374 27.999999,0.36219 L47.999999,0.36219 C48.7591121,0.368793374 49.4490605,0.804562479 49.781199,1.48719 L54.218799,10.36219 L65.000001,10.36219 C71.059401,10.36219 76.000001,15.30282 76.000001,21.36219 L76.000001,53.3622 C76.000001,59.4215 71.059401,64.3622 65.000001,64.3622 L10.999999,64.3622 Z M10.999999,60.3622 L65.000001,60.3622 C68.912601,60.3622 72.000001,57.2747 72.000001,53.3622 L72.000001,21.36219 C72.000001,17.44966 68.912601,14.36219 65.000001,14.36219 L52.999999,14.36219 C52.247845,14.3615067 51.5596597,13.9389249 51.218799,13.26844 L46.749999,4.36219 L29.249999,4.36219 L24.781199,13.26844 C24.4403383,13.9389249 23.752153,14.3615067 22.999999,14.36219 L10.999999,14.36219 C7.087399,14.36219 3.999999,17.44966 3.999999,21.36219 L3.999999,53.3622 C3.999999,57.2747 7.087399,60.3622 10.999999,60.3622 Z M37.999999,53.3622 C29.187299,53.3622 21.999999,46.1751 21.999999,37.3622 C21.999999,28.54928 29.187299,21.36219 37.999999,21.36219 C46.812899,21.36219 53.999999,28.54938 53.999999,37.3622 C53.999999,46.1751 46.812899,53.3622 37.999999,53.3622 Z M37.999999,49.3622 C44.651099,49.3622 49.999999,44.0133 49.999999,37.3622 C49.999999,30.7111 44.651099,25.36218 37.999999,25.36218 C31.349099,25.36218 25.999999,30.7112 25.999999,37.3622 C25.999999,44.0133 31.349099,49.3622 37.999999,49.3622 Z" id="Shape"></path>
        </g>
    </g>
</svg>